# xmcd
#
# Track frame offsets:
#	150
#	9478
#	17965
#	29413
#	42563
#	55873
#	69134
#	83235
#	95856
#	108004
#	117052
#	129866
#	142653
#	156029
#	167529
#	178734
#	190696
#	206848
#	219763
#	233904
#
# Disc length: 3290 seconds
#
# Revision: 0
# Processed by: cddbd v1.5.2PL0 Copyright (c) Steve Scherf et al.
# Submitted via: EasyCDDAExtractor 16.0.1.1
#
DISCID=000cd814
DTITLE=Dalida - 2011 Le Coffret... CD 4
DYEAR=2011
DGENRE=Chanson
TTITLE0=Marina 
TTITLE1=Ne Joue Pas
TTITLE2=J'ai Reve 
TTITLE3=Le Jour Ou La Pluie Viendra 
TTITLE4=Timide Serenade 
TTITLE5=Helena 
TTITLE6=Guitare Flamenco
TTITLE7=L'amour Chante 
TTITLE8=Inconnu Mon Amour 
TTITLE9=C'est Ca L'amore 
TTITLE10=Je Te Tendrai Les Bras 
TTITLE11=Oh La La 
TTITLE12=Gitane 
TTITLE13=La Joie D'aimer
TTITLE14=La Montagne 
TTITLE15=Noel Blanc 
TTITLE16=\nMarie, Marie... 
TTITLE17=Marchande De Fruits
TTITLE18=Madona
TTITLE19=Le Petit Chemin De Pierre 
EXTD=
EXTT0=
EXTT1=
EXTT2=
EXTT3=
EXTT4=
EXTT5=
EXTT6=
EXTT7=
EXTT8=
EXTT9=
EXTT10=
EXTT11=
EXTT12=
EXTT13=
EXTT14=
EXTT15=
EXTT16=
EXTT17=
EXTT18=
EXTT19=
PLAYORDER=
